<svg width="500" height="96" viewBox="0 0 500 96" fill="none" xmlns="http://www.w3.org/2000/svg">
<path d="M27.7783 91.1077V21.1077H3.96875V5.86963H67.6591V21.1077H43.8496V91.1077H27.7783ZM79.0888 5.86963H95.1603V39.9172H130.994V5.86963H147.065V91.1077H130.994V55.1553H95.1603V91.1077H79.0888V5.86963ZM180.261 21.1077V40.8696H214.427V56.1077H180.261V75.8696H218.237V91.1077H164.189V5.86963H218.237V21.1077H180.261ZM259.171 5.86963H292.505C296.155 5.86963 299.568 6.46486 302.743 7.65534C305.917 8.76645 308.655 10.3538 310.957 12.4172C313.338 14.4014 315.203 16.7426 316.552 19.4411C317.902 22.1395 318.576 25.0363 318.576 28.1315C318.576 32.6553 317.465 36.4649 315.243 39.5601C313.1 42.576 310.402 44.8776 307.148 46.4649V47.4172C311.513 49.0045 315.005 51.5045 317.624 54.9172C320.322 58.2506 321.671 62.4172 321.671 67.4172C321.671 71.068 320.917 74.3617 319.409 77.2982C317.981 80.1553 315.997 82.6157 313.457 84.6791C310.917 86.7426 307.941 88.3299 304.529 89.4411C301.195 90.5522 297.584 91.1077 293.695 91.1077H259.171V5.86963ZM291.314 40.6315C295.044 40.6315 297.902 39.6395 299.886 37.6553C301.949 35.5919 302.981 33.1712 302.981 30.3934C302.981 27.6157 301.989 25.2347 300.005 23.2506C298.021 21.2665 295.282 20.2744 291.79 20.2744H275.243V40.6315H291.314ZM293.1 76.3458C297.148 76.3458 300.243 75.3537 302.386 73.3696C304.529 71.3061 305.6 68.6871 305.6 65.5125C305.6 62.3379 304.489 59.7188 302.267 57.6553C300.124 55.5125 296.909 54.4411 292.624 54.4411H275.243V76.3458H293.1ZM374.398 93.0125C368.049 93.0125 362.136 91.8617 356.66 89.5601C351.263 87.2585 346.581 84.1236 342.613 80.1553C338.644 76.1077 335.509 71.3855 333.208 65.9887C330.986 60.5125 329.875 54.6792 329.875 48.4887C329.875 42.2982 330.986 36.5045 333.208 31.1077C335.509 25.6315 338.644 20.9093 342.613 16.9411C346.581 12.8934 351.263 9.71883 356.66 7.41724C362.136 5.11566 368.049 3.96484 374.398 3.96484C380.748 3.96484 386.621 5.11566 392.017 7.41724C397.494 9.71883 402.215 12.8934 406.184 16.9411C410.152 20.9093 413.247 25.6315 415.469 31.1077C417.771 36.5045 418.922 42.2982 418.922 48.4887C418.922 54.6792 417.771 60.5125 415.469 65.9887C413.247 71.3855 410.152 76.1077 406.184 80.1553C402.215 84.1236 397.494 87.2585 392.017 89.5601C386.621 91.8617 380.748 93.0125 374.398 93.0125ZM374.398 77.7744C378.367 77.7744 382.057 77.0601 385.47 75.6315C388.962 74.203 391.978 72.2188 394.517 69.6791C397.136 67.1395 399.16 64.0839 400.588 60.5125C402.096 56.8617 402.85 52.8538 402.85 48.4887C402.85 44.1236 402.096 40.1553 400.588 36.5839C399.16 32.9331 397.136 29.8379 394.517 27.2982C391.978 24.7585 388.962 22.7744 385.47 21.3458C382.057 19.9172 378.367 19.203 374.398 19.203C370.43 19.203 366.7 19.9172 363.208 21.3458C359.795 22.7744 356.779 24.7585 354.16 27.2982C351.621 29.8379 349.597 32.9331 348.089 36.5839C346.66 40.1553 345.946 44.1236 345.946 48.4887C345.946 52.8538 346.66 56.8617 348.089 60.5125C349.597 64.0839 351.621 67.1395 354.16 69.6791C356.779 72.2188 359.795 74.203 363.208 75.6315C366.7 77.0601 370.43 77.7744 374.398 77.7744ZM449.053 46.5839L423.219 5.86963H443.1L459.648 33.7268H460.6L477.148 5.86963H497.029L471.196 46.5839L499.172 91.1077H479.172L460.6 60.3934H459.648L441.077 91.1077H421.077L449.053 46.5839Z" fill="#1FADEF"/>
</svg>
