<svg width="126" height="24" viewBox="0 0 126 24" fill="none" xmlns="http://www.w3.org/2000/svg">
<path d="M6.22684 22.9043V5.2643H0.226836V1.4243H16.2768V5.2643H10.2768V22.9043H6.22684ZM19.1571 1.4243H23.2071V10.0043H32.2371V1.4243H36.2871V22.9043H32.2371V13.8443H23.2071V22.9043H19.1571V1.4243ZM44.6524 5.2643V10.2443H53.2624V14.0843H44.6524V19.0643H54.2224V22.9043H40.6024V1.4243H54.2224V5.2643H44.6524ZM64.5379 1.4243H72.9379C73.8579 1.4243 74.7179 1.5743 75.5179 1.8743C76.3179 2.1543 77.0079 2.5543 77.5879 3.0743C78.1879 3.5743 78.6579 4.1643 78.9979 4.8443C79.3379 5.5243 79.5079 6.2543 79.5079 7.0343C79.5079 8.1743 79.2279 9.1343 78.6679 9.9143C78.1279 10.6743 77.4479 11.2543 76.6279 11.6543V11.8943C77.7279 12.2943 78.6079 12.9243 79.2679 13.7843C79.9479 14.6243 80.2879 15.6743 80.2879 16.9343C80.2879 17.8543 80.0979 18.6843 79.7179 19.4243C79.3579 20.1443 78.8579 20.7643 78.2179 21.2843C77.5779 21.8043 76.8279 22.2043 75.9679 22.4843C75.1279 22.7643 74.2179 22.9043 73.2379 22.9043H64.5379V1.4243ZM72.6379 10.1843C73.5779 10.1843 74.2979 9.9343 74.7979 9.4343C75.3179 8.9143 75.5779 8.3043 75.5779 7.6043C75.5779 6.9043 75.3279 6.3043 74.8279 5.8043C74.3279 5.3043 73.6379 5.0543 72.7579 5.0543H68.5879V10.1843H72.6379ZM73.0879 19.1843C74.1079 19.1843 74.8879 18.9343 75.4279 18.4343C75.9679 17.9143 76.2379 17.2543 76.2379 16.4543C76.2379 15.6543 75.9579 14.9943 75.3979 14.4743C74.8579 13.9343 74.0479 13.6643 72.9679 13.6643H68.5879V19.1843H73.0879ZM93.5751 23.3843C91.9751 23.3843 90.4851 23.0943 89.1051 22.5143C87.7451 21.9343 86.5651 21.1443 85.5651 20.1443C84.5651 19.1243 83.7751 17.9343 83.1951 16.5743C82.6351 15.1943 82.3551 13.7243 82.3551 12.1643C82.3551 10.6043 82.6351 9.1443 83.1951 7.7843C83.7751 6.4043 84.5651 5.2143 85.5651 4.2143C86.5651 3.1943 87.7451 2.3943 89.1051 1.8143C90.4851 1.2343 91.9751 0.944295 93.5751 0.944295C95.1751 0.944295 96.6551 1.2343 98.0151 1.8143C99.3951 2.3943 100.585 3.1943 101.585 4.2143C102.585 5.2143 103.365 6.4043 103.925 7.7843C104.505 9.1443 104.795 10.6043 104.795 12.1643C104.795 13.7243 104.505 15.1943 103.925 16.5743C103.365 17.9343 102.585 19.1243 101.585 20.1443C100.585 21.1443 99.3951 21.9343 98.0151 22.5143C96.6551 23.0943 95.1751 23.3843 93.5751 23.3843ZM93.5751 19.5443C94.5751 19.5443 95.5051 19.3643 96.3651 19.0043C97.2451 18.6443 98.0051 18.1443 98.6451 17.5043C99.3051 16.8643 99.8151 16.0943 100.175 15.1943C100.555 14.2743 100.745 13.2643 100.745 12.1643C100.745 11.0643 100.555 10.0643 100.175 9.1643C99.8151 8.2443 99.3051 7.4643 98.6451 6.8243C98.0051 6.1843 97.2451 5.6843 96.3651 5.3243C95.5051 4.9643 94.5751 4.7843 93.5751 4.7843C92.5751 4.7843 91.6351 4.9643 90.7551 5.3243C89.8951 5.6843 89.1351 6.1843 88.4751 6.8243C87.8351 7.4643 87.3251 8.2443 86.9451 9.1643C86.5851 10.0643 86.4051 11.0643 86.4051 12.1643C86.4051 13.2643 86.5851 14.2743 86.9451 15.1943C87.3251 16.0943 87.8351 16.8643 88.4751 17.5043C89.1351 18.1443 89.8951 18.6443 90.7551 19.0043C91.6351 19.3643 92.5751 19.5443 93.5751 19.5443ZM112.388 11.6843L105.878 1.4243H110.888L115.058 8.4443H115.298L119.468 1.4243H124.478L117.968 11.6843L125.018 22.9043H119.978L115.298 15.1643H115.058L110.378 22.9043H105.338L112.388 11.6843Z" fill="white"/>
</svg>
